<svg width="24" height="25" viewBox="0 0 24 25" fill="none" xmlns="http://www.w3.org/2000/svg">
<g clip-path="url(#clip0_150_6365)">
<rect width="24" height="24" transform="translate(0 0.756104)" fill="black"/>
<path d="M21.2806 19.1801C20.9328 19.9836 20.5211 20.7233 20.0441 21.4033C19.3939 22.3304 18.8615 22.9721 18.4512 23.3285C17.8151 23.9134 17.1337 24.2129 16.4039 24.23C15.8801 24.23 15.2483 24.0809 14.5129 23.7785C13.7751 23.4775 13.097 23.3285 12.477 23.3285C11.8268 23.3285 11.1294 23.4775 10.3835 23.7785C9.63647 24.0809 9.03465 24.2385 8.57452 24.2541C7.87475 24.2839 7.17725 23.9759 6.48102 23.3285C6.03665 22.9409 5.48084 22.2765 4.81499 21.3352C4.10059 20.33 3.51326 19.1645 3.05313 17.8356C2.56035 16.4003 2.31332 15.0104 2.31332 13.6648C2.31332 12.1234 2.64638 10.794 3.31351 9.67995C3.8378 8.78511 4.53531 8.07923 5.40829 7.56103C6.28127 7.04284 7.22452 6.77877 8.24033 6.76188C8.79614 6.76188 9.52502 6.93381 10.4308 7.2717C11.334 7.61072 11.914 7.78265 12.1682 7.78265C12.3583 7.78265 13.0026 7.58162 14.0948 7.18084C15.1276 6.80916 15.9993 6.65526 16.7134 6.71588C18.6485 6.87205 20.1023 7.63486 21.0691 9.00914C19.3385 10.0577 18.4824 11.5264 18.4994 13.4105C18.515 14.8781 19.0474 16.0993 20.0938 17.069C20.5679 17.519 21.0975 17.8668 21.6867 18.1139C21.5589 18.4844 21.424 18.8393 21.2806 19.1801ZM16.8426 1.71623C16.8426 2.8665 16.4224 3.94049 15.5848 4.93457C14.5739 6.11634 13.3513 6.79922 12.0254 6.69146C12.0085 6.55347 11.9987 6.40823 11.9987 6.25561C11.9987 5.15136 12.4794 3.9696 13.3331 3.00334C13.7593 2.51411 14.3014 2.10732 14.9587 1.78282C15.6146 1.46316 16.235 1.28638 16.8185 1.2561C16.8355 1.40988 16.8426 1.56366 16.8426 1.71622V1.71623Z" fill="white"/>
</g>
<defs>
<clipPath id="clip0_150_6365">
<rect width="24" height="24" fill="white" transform="translate(0 0.756104)"/>
</clipPath>
</defs>
</svg>
