<svg width="20" height="19" viewBox="0 0 20 19" fill="none" xmlns="http://www.w3.org/2000/svg">
<path d="M19.3769 3.89157L15.1494 0.366821L13.9639 1.76394L18.1913 5.28869L19.3769 3.89157ZM6.40036 1.76394L5.22402 0.366821L0.996544 3.88244L2.18208 5.27956L6.40036 1.76394ZM10.6462 5.97355H9.26769V11.4524L13.633 14.0549L14.3223 12.9317L10.6462 10.7676V5.97355ZM10.1867 2.32096C5.6192 2.32096 1.91556 6.00095 1.91556 10.5393C1.91556 15.0776 5.61001 18.7576 10.1867 18.7576C12.3804 18.7576 14.4842 17.8918 16.0353 16.3505C17.5864 14.8093 18.4579 12.7189 18.4579 10.5393C18.4579 8.35966 17.5864 6.26929 16.0353 4.72805C14.4842 3.18682 12.3804 2.32096 10.1867 2.32096ZM10.1867 16.9313C6.63012 16.9313 3.75359 14.0732 3.75359 10.5393C3.75359 7.00541 6.63012 4.14725 10.1867 4.14725C13.7433 4.14725 16.6198 7.00541 16.6198 10.5393C16.6198 14.0732 13.7433 16.9313 10.1867 16.9313Z" fill="white" fill-opacity="0.85"/>
</svg>
