<svg width="18" height="17" viewBox="0 0 18 17" fill="none" xmlns="http://www.w3.org/2000/svg">
<path d="M9.06289 8.55021C7.93326 8.55021 6.96623 8.15057 6.1618 7.35127C5.35737 6.55198 4.95515 5.59112 4.95515 4.46871C4.95515 3.3463 5.35737 2.38544 6.1618 1.58615C6.96623 0.786854 7.93326 0.387207 9.06289 0.387207C10.1925 0.387207 11.1595 0.786854 11.964 1.58615C12.7684 2.38544 13.1706 3.3463 13.1706 4.46871C13.1706 5.59112 12.7684 6.55198 11.964 7.35127C11.1595 8.15057 10.1925 8.55021 9.06289 8.55021ZM0.84742 16.7132V13.8562C0.84742 13.278 0.997181 12.7465 1.2967 12.2618C1.59623 11.7772 1.99416 11.4073 2.49051 11.1522C3.55168 10.625 4.62996 10.2296 5.72535 9.96599C6.82075 9.70239 7.93326 9.57059 9.06289 9.57059C10.1925 9.57059 11.305 9.70239 12.4004 9.96599C13.4958 10.2296 14.5741 10.625 15.6353 11.1522C16.1316 11.4073 16.5296 11.7772 16.8291 12.2618C17.1286 12.7465 17.2784 13.278 17.2784 13.8562V16.7132H0.84742ZM2.90129 14.6725H15.2245V13.8562C15.2245 13.6691 15.1774 13.499 15.0833 13.346C14.9892 13.1929 14.8651 13.0739 14.711 12.9889C13.7868 12.5297 12.854 12.1853 11.9126 11.9557C10.9713 11.7261 10.0214 11.6113 9.06289 11.6113C8.10442 11.6113 7.1545 11.7261 6.21315 11.9557C5.27179 12.1853 4.33899 12.5297 3.41475 12.9889C3.26071 13.0739 3.13663 13.1929 3.04249 13.346C2.94835 13.499 2.90129 13.6691 2.90129 13.8562V14.6725ZM9.06289 6.50946C9.6277 6.50946 10.1112 6.30964 10.5134 5.90999C10.9156 5.51034 11.1168 5.02992 11.1168 4.46871C11.1168 3.9075 10.9156 3.42708 10.5134 3.02743C10.1112 2.62778 9.6277 2.42796 9.06289 2.42796C8.49808 2.42796 8.01456 2.62778 7.61235 3.02743C7.21013 3.42708 7.00902 3.9075 7.00902 4.46871C7.00902 5.02992 7.21013 5.51034 7.61235 5.90999C8.01456 6.30964 8.49808 6.50946 9.06289 6.50946Z" fill="white" fill-opacity="0.85"/>
</svg>
