<svg width="19" height="21" viewBox="0 0 19 21" fill="none" xmlns="http://www.w3.org/2000/svg">
<path d="M2.42057 20.7336C1.85575 20.7336 1.37224 20.5337 0.970023 20.1341C0.567807 19.7345 0.366699 19.254 0.366699 18.6928V4.40755C0.366699 3.84635 0.567807 3.36592 0.970023 2.96627C1.37224 2.56663 1.85575 2.3668 2.42057 2.3668H3.4475V0.32605H5.50137V2.3668H13.7168V0.32605H15.7707V2.3668H16.7976C17.3625 2.3668 17.846 2.56663 18.2482 2.96627C18.6504 3.36592 18.8515 3.84635 18.8515 4.40755V18.6928C18.8515 19.254 18.6504 19.7345 18.2482 20.1341C17.846 20.5337 17.3625 20.7336 16.7976 20.7336H2.42057ZM2.42057 18.6928H16.7976V8.48906H2.42057V18.6928ZM2.42057 6.44831H16.7976V4.40755H2.42057V6.44831ZM9.6091 12.5706C9.31814 12.5706 9.07424 12.4728 8.87741 12.2772C8.68058 12.0816 8.58217 11.8393 8.58217 11.5502C8.58217 11.2611 8.68058 11.0187 8.87741 10.8232C9.07424 10.6276 9.31814 10.5298 9.6091 10.5298C9.90007 10.5298 10.144 10.6276 10.3408 10.8232C10.5376 11.0187 10.636 11.2611 10.636 11.5502C10.636 11.8393 10.5376 12.0816 10.3408 12.2772C10.144 12.4728 9.90007 12.5706 9.6091 12.5706ZM5.50137 12.5706C5.2104 12.5706 4.96651 12.4728 4.76968 12.2772C4.57285 12.0816 4.47443 11.8393 4.47443 11.5502C4.47443 11.2611 4.57285 11.0187 4.76968 10.8232C4.96651 10.6276 5.2104 10.5298 5.50137 10.5298C5.79233 10.5298 6.03623 10.6276 6.23306 10.8232C6.42989 11.0187 6.5283 11.2611 6.5283 11.5502C6.5283 11.8393 6.42989 12.0816 6.23306 12.2772C6.03623 12.4728 5.79233 12.5706 5.50137 12.5706ZM13.7168 12.5706C13.4259 12.5706 13.182 12.4728 12.9851 12.2772C12.7883 12.0816 12.6899 11.8393 12.6899 11.5502C12.6899 11.2611 12.7883 11.0187 12.9851 10.8232C13.182 10.6276 13.4259 10.5298 13.7168 10.5298C14.0078 10.5298 14.2517 10.6276 14.4485 10.8232C14.6454 11.0187 14.7438 11.2611 14.7438 11.5502C14.7438 11.8393 14.6454 12.0816 14.4485 12.2772C14.2517 12.4728 14.0078 12.5706 13.7168 12.5706ZM9.6091 16.6521C9.31814 16.6521 9.07424 16.5543 8.87741 16.3587C8.68058 16.1631 8.58217 15.9208 8.58217 15.6317C8.58217 15.3426 8.68058 15.1002 8.87741 14.9047C9.07424 14.7091 9.31814 14.6113 9.6091 14.6113C9.90007 14.6113 10.144 14.7091 10.3408 14.9047C10.5376 15.1002 10.636 15.3426 10.636 15.6317C10.636 15.9208 10.5376 16.1631 10.3408 16.3587C10.144 16.5543 9.90007 16.6521 9.6091 16.6521ZM5.50137 16.6521C5.2104 16.6521 4.96651 16.5543 4.76968 16.3587C4.57285 16.1631 4.47443 15.9208 4.47443 15.6317C4.47443 15.3426 4.57285 15.1002 4.76968 14.9047C4.96651 14.7091 5.2104 14.6113 5.50137 14.6113C5.79233 14.6113 6.03623 14.7091 6.23306 14.9047C6.42989 15.1002 6.5283 15.3426 6.5283 15.6317C6.5283 15.9208 6.42989 16.1631 6.23306 16.3587C6.03623 16.5543 5.79233 16.6521 5.50137 16.6521ZM13.7168 16.6521C13.4259 16.6521 13.182 16.5543 12.9851 16.3587C12.7883 16.1631 12.6899 15.9208 12.6899 15.6317C12.6899 15.3426 12.7883 15.1002 12.9851 14.9047C13.182 14.7091 13.4259 14.6113 13.7168 14.6113C14.0078 14.6113 14.2517 14.7091 14.4485 14.9047C14.6454 15.1002 14.7438 15.3426 14.7438 15.6317C14.7438 15.9208 14.6454 16.1631 14.4485 16.3587C14.2517 16.5543 14.0078 16.6521 13.7168 16.6521Z" fill="white" fill-opacity="0.85"/>
</svg>
