<svg width="27" height="24" viewBox="0 0 27 24" fill="none" xmlns="http://www.w3.org/2000/svg">
<path d="M15.8203 12.25L19.3359 8.73438C19.793 8.3125 19.793 7.60938 19.3359 7.1875L18.5625 6.41406C18.1406 5.95703 17.4375 5.95703 17.0156 6.41406L13.5 9.92969L9.94922 6.41406C9.52734 5.95703 8.82422 5.95703 8.40234 6.41406L7.62891 7.1875C7.17188 7.60938 7.17188 8.3125 7.62891 8.73438L11.1445 12.25L7.62891 15.8008C7.17188 16.2227 7.17188 16.9258 7.62891 17.3477L8.40234 18.1211C8.82422 18.5781 9.52734 18.5781 9.94922 18.1211L13.5 14.6055L17.0156 18.1211C17.4375 18.5781 18.1406 18.5781 18.5625 18.1211L19.3359 17.3477C19.793 16.9258 19.793 16.2227 19.3359 15.8008L15.8203 12.25Z" fill="black" fill-opacity="0.85"/>
</svg>
