<svg width="18" height="19" viewBox="0 0 18 19" fill="none" xmlns="http://www.w3.org/2000/svg">
<path d="M15.0205 5.36626L16.1388 4.09648L14.8609 2.98532L13.7426 4.17541C12.6529 3.37201 11.3766 2.85511 10.0321 2.67266L9.98973 2.66807V1.95386H11.9857V0.366821H6.31631V1.95386H8.31228V2.747C4.17149 3.12249 0.952332 6.55559 0.952332 10.7366C0.952332 15.1667 4.56636 18.7576 9.02491 18.7576C13.4834 18.7576 17.0975 15.1667 17.0975 10.7366C17.0975 8.66755 16.3093 6.78088 15.0144 5.3586L15.0205 5.3655V5.36626ZM9.11128 16.7123C8.30387 16.7123 7.50437 16.5543 6.75842 16.2473C6.01247 15.9403 5.33468 15.4903 4.76376 14.923C4.19283 14.3557 3.73995 13.6823 3.43097 12.9411C3.12199 12.1999 2.96296 11.4055 2.96296 10.6033C2.96296 9.80101 3.12199 9.00661 3.43097 8.26542C3.73995 7.52424 4.19283 6.85078 4.76376 6.2835C5.33468 5.71622 6.01247 5.26623 6.75842 4.95922C7.50437 4.65221 8.30387 4.4942 9.11128 4.4942C10.7599 4.50531 12.3378 5.16108 13.5035 6.31956C14.0858 6.88752 14.5482 7.56528 14.8636 8.31309C15.1789 9.0609 15.3408 9.86374 15.3398 10.6745V10.6837V10.683C15.2064 14.0141 12.4777 16.6694 9.11591 16.7131H9.11128V16.7123Z" fill="white" fill-opacity="0.85"/>
<path d="M8.313 5.92188H9.98968V12.0309H8.313V5.92188Z" fill="white" fill-opacity="0.85"/>
</svg>
