<svg width="24" height="25" viewBox="0 0 24 25" fill="none" xmlns="http://www.w3.org/2000/svg">
<rect width="24" height="24" transform="translate(0 0.524292)" fill="#1877F2"/>
<path d="M23.5 12.5942C23.5 6.24289 18.3513 1.09417 12 1.09417C5.64872 1.09417 0.5 6.24289 0.5 12.5942C0.5 18.3342 4.70538 23.0917 10.2031 23.9545V15.9184H7.2832V12.5942H10.2031V10.0606C10.2031 7.17839 11.92 5.58636 14.5468 5.58636C15.805 5.58636 17.1211 5.81097 17.1211 5.81097V8.64105H15.671C14.2424 8.64105 13.7969 9.52751 13.7969 10.437V12.5942H16.9863L16.4765 15.9184H13.7969V23.9545C19.2946 23.0917 23.5 18.3342 23.5 12.5942Z" fill="white"/>
</svg>
