<svg width="24" height="25" viewBox="0 0 24 25" fill="none" xmlns="http://www.w3.org/2000/svg">
<rect width="24" height="24" transform="translate(0 0.140198)" fill="white"/>
<path fill-rule="evenodd" clip-rule="evenodd" d="M23.04 12.4016C23.04 11.5861 22.9668 10.802 22.8309 10.0493H12V14.4977H18.1891C17.9225 15.9352 17.1123 17.1532 15.8943 17.9686V20.8541H19.6109C21.7855 18.852 23.04 15.9039 23.04 12.4016Z" fill="#4285F4"/>
<path fill-rule="evenodd" clip-rule="evenodd" d="M11.9999 23.64C15.1049 23.64 17.7081 22.6102 19.6108 20.8539L15.8942 17.9684C14.8645 18.6584 13.5472 19.0661 11.9999 19.0661C9.00469 19.0661 6.46946 17.0432 5.56515 14.325H1.7231V17.3046C3.61537 21.063 7.50446 23.64 11.9999 23.64Z" fill="#34A853"/>
<path fill-rule="evenodd" clip-rule="evenodd" d="M5.56523 14.3253C5.33523 13.6353 5.20455 12.8982 5.20455 12.1403C5.20455 11.3823 5.33523 10.6453 5.56523 9.95525V6.97571H1.72318C0.944318 8.52821 0.5 10.2846 0.5 12.1403C0.5 13.9959 0.944318 15.7523 1.72318 17.3048L5.56523 14.3253Z" fill="#FBBC05"/>
<path fill-rule="evenodd" clip-rule="evenodd" d="M11.9999 5.21406C13.6883 5.21406 15.2042 5.79429 16.3961 6.93383L19.6945 3.63542C17.7029 1.77974 15.0997 0.640198 11.9999 0.640198C7.50447 0.640198 3.61537 3.21724 1.7231 6.97565L5.56515 9.9552C6.46946 7.23702 9.00469 5.21406 11.9999 5.21406Z" fill="#EA4335"/>
</svg>
