<svg width="29" height="29" viewBox="0 0 29 29" fill="none" xmlns="http://www.w3.org/2000/svg">
<mask id="mask0_93_41820" style="mask-type:alpha" maskUnits="userSpaceOnUse" x="0" y="0" width="29" height="29">
<rect width="29" height="29" fill="#D9D9D9"/>
</mask>
<g mask="url(#mask0_93_41820)">
<path d="M20.5417 27.7917C22.5556 27.7917 24.2674 27.0868 25.6771 25.6771C27.0868 24.2674 27.7917 22.5556 27.7917 20.5417H25.9792C25.9792 22.0521 25.4506 23.3359 24.3933 24.3932C23.336 25.4505 22.0521 25.9792 20.5417 25.9792V27.7917ZM1.20837 8.45834H3.02087C3.02087 6.94793 3.54952 5.66407 4.60681 4.60678C5.6641 3.54949 6.94796 3.02084 8.45837 3.02084V1.20834C6.44449 1.20834 4.73268 1.9132 3.32296 3.32293C1.91324 4.73265 1.20837 6.44445 1.20837 8.45834ZM4.25942 24.7406C2.24553 22.7267 1.23858 20.3101 1.23858 17.4906C1.23858 14.6712 2.24553 12.2545 4.25942 10.2406L8.51879 5.95105C9.10282 5.36702 9.81271 5.07501 10.6485 5.07501C11.4842 5.07501 12.1941 5.36702 12.7782 5.95105C12.8587 6.03161 12.9342 6.11216 13.0047 6.19272C13.0752 6.27327 13.1306 6.35383 13.1709 6.43439L16.2219 3.38334C16.8059 2.79932 17.5158 2.5073 18.3516 2.5073C19.1874 2.5073 19.8973 2.79932 20.4813 3.38334C20.582 3.48404 20.6625 3.57466 20.723 3.65522L20.9042 3.89689C21.4882 3.49411 22.1428 3.32293 22.8678 3.38334C23.5928 3.44376 24.2171 3.73577 24.7407 4.25939C25.2039 4.72258 25.4858 5.25123 25.5865 5.84532C25.6872 6.43942 25.6167 7.02848 25.375 7.61251C25.4959 7.67293 25.6117 7.74341 25.7224 7.82397C25.8332 7.90452 25.9389 7.99515 26.0396 8.09584C26.6237 8.67987 26.9157 9.38977 26.9157 10.2255C26.9157 11.0613 26.6237 11.7712 26.0396 12.3552L25.5563 12.8386C25.6368 12.8788 25.7174 12.9342 25.798 13.0047C25.8785 13.0752 25.9591 13.1507 26.0396 13.2313C26.6237 13.8153 26.9157 14.5252 26.9157 15.3609C26.9157 16.1967 26.6237 16.9066 26.0396 17.4906L18.7594 24.7406C16.7455 26.7545 14.3289 27.7615 11.5094 27.7615C8.68997 27.7615 6.2733 26.7545 4.25942 24.7406ZM5.95108 23.049C6.71636 23.8142 7.58233 24.3882 8.549 24.7708C9.51567 25.1535 10.5025 25.3448 11.5094 25.3448C12.5164 25.3448 13.5032 25.1535 14.4698 24.7708C15.4365 24.3882 16.3025 23.8142 17.0677 23.049L24.3177 15.7688C24.4386 15.6479 24.499 15.507 24.499 15.3458C24.499 15.1847 24.4386 15.0438 24.3177 14.9229C24.1969 14.8021 24.0559 14.7417 23.8948 14.7417C23.7337 14.7417 23.5928 14.8021 23.4719 14.9229L19.2125 19.2125L17.4907 17.4906L24.3177 10.6636C24.4386 10.5427 24.499 10.3967 24.499 10.2255C24.499 10.0544 24.4386 9.90834 24.3177 9.78751C24.1969 9.68682 24.0559 9.63143 23.8948 9.62136C23.7337 9.6113 23.5928 9.66668 23.4719 9.78751L17.4907 15.7688L15.7688 14.0771L23.049 6.79689C23.1698 6.67605 23.2302 6.53508 23.2302 6.37397C23.2302 6.21286 23.1698 6.07189 23.049 5.95105C22.9282 5.83022 22.7872 5.7698 22.6261 5.7698C22.465 5.7698 22.324 5.83022 22.2032 5.95105L14.923 13.2313L13.2313 11.5094L18.7594 5.95105C18.8803 5.83022 18.9407 5.68925 18.9407 5.52814C18.9407 5.36702 18.8803 5.22605 18.7594 5.10522C18.6587 4.98439 18.5228 4.92397 18.3516 4.92397C18.1804 4.92397 18.0344 4.98439 17.9136 5.10522L10.3011 12.7177C10.724 13.8052 10.8247 14.938 10.6032 16.1162C10.3816 17.2943 9.82782 18.3264 8.94171 19.2125L7.25004 17.4906C7.9549 16.7858 8.30733 15.9299 8.30733 14.9229C8.30733 13.916 7.9549 13.0601 7.25004 12.3552L11.0865 8.51876C11.2073 8.39793 11.2677 8.25696 11.2677 8.09584C11.2677 7.93473 11.2073 7.79376 11.0865 7.67293C10.9657 7.55209 10.8247 7.49671 10.6636 7.50678C10.5025 7.51685 10.3615 7.57223 10.2407 7.67293L5.95108 11.9323C5.1858 12.6976 4.61185 13.5636 4.22921 14.5302C3.84657 15.4969 3.65525 16.4837 3.65525 17.4906C3.65525 18.4976 3.84657 19.4844 4.22921 20.4511C4.61185 21.4177 5.1858 22.2837 5.95108 23.049Z" fill="#1C1B1F"/>
</g>
</svg>
